<svg width="55" height="56" viewBox="0 0 55 56" fill="none" xmlns="http://www.w3.org/2000/svg">
<path d="M43.0833 3.66683C41.4162 3.66779 39.7677 4.01698 38.2433 4.69204C36.8716 3.21215 35.2089 2.03153 33.3596 1.22414C31.5103 0.416751 29.5142 0 27.4963 0C25.4785 0 23.4823 0.416751 21.633 1.22414C19.7837 2.03153 18.1211 3.21215 16.7493 4.69204C15.2449 4.02482 13.6186 3.67642 11.9729 3.66879C10.3272 3.66116 8.69771 3.99447 7.18717 4.64772C5.67663 5.30096 4.31776 6.25998 3.19617 7.46436C2.07459 8.66873 1.21461 10.0923 0.670412 11.6455C0.126215 13.1987 -0.0904001 14.8477 0.0342151 16.4887C0.15883 18.1297 0.621974 19.7272 1.39447 21.1803C2.16696 22.6335 3.23205 23.9109 4.52264 24.9321C5.81323 25.9533 7.30133 26.6962 8.8932 27.1138L11.9159 44.9949V54.0848C11.9159 54.3279 12.0124 54.5611 12.1844 54.733C12.3563 54.9049 12.5894 55.0015 12.8326 55.0015H42.1666C42.4098 55.0015 42.6429 54.9049 42.8148 54.733C42.9867 54.5611 43.0833 54.3279 43.0833 54.0848V44.9949L46.106 27.1138C48.9079 26.3787 51.3462 24.6483 52.9651 22.2462C54.5839 19.844 55.2725 16.9345 54.9021 14.0615C54.5318 11.1886 53.1278 8.54883 50.9526 6.63577C48.7775 4.72271 45.9801 3.6673 43.0833 3.66683ZM41.2499 53.1681H13.7492V45.8346H41.2499V53.1681ZM45.1196 25.4618C44.9386 25.4989 44.773 25.5899 44.6445 25.7228C44.5161 25.8558 44.4308 26.0244 44.3999 26.2066L41.3919 44.0012H35.8176L36.6641 32.1495H36.6632C36.6648 32.1279 36.6665 32.1063 36.6665 32.0843C36.6634 31.8489 36.57 31.6237 36.4054 31.4554C36.2408 31.2871 36.0178 31.1885 35.7825 31.1801C35.5473 31.1717 35.3178 31.2542 35.1417 31.4104C34.9655 31.5666 34.8562 31.7846 34.8364 32.0191H34.8355L33.9796 44.0012H28.4163V33.9176C28.4163 33.6745 28.3197 33.4413 28.1478 33.2694C27.9759 33.0975 27.7427 33.0009 27.4996 33.0009C27.2565 33.0009 27.0233 33.0975 26.8514 33.2694C26.6795 33.4413 26.5829 33.6745 26.5829 33.9176V44.0012H21.0196L20.1637 32.0189H20.1628C20.143 31.7843 20.0337 31.5663 19.8575 31.4101C19.6814 31.2539 19.4519 31.1715 19.2166 31.1799C18.9813 31.1883 18.7583 31.2869 18.5938 31.4552C18.4292 31.6236 18.3357 31.8488 18.3327 32.0842C18.3327 32.1062 18.3344 32.1278 18.336 32.1494H18.3351L19.1816 44.0012H13.6073L10.5993 26.207C10.5684 26.0247 10.4831 25.8561 10.3547 25.7232C10.2262 25.5903 10.0606 25.4993 9.87955 25.4622C8.01149 25.0772 6.29089 24.1704 4.91744 22.847C3.54398 21.5236 2.57398 19.8378 2.12002 17.9853C1.66606 16.1328 1.74675 14.1896 2.35272 12.3811C2.95869 10.5726 4.06509 8.97303 5.54353 7.76803C7.02197 6.56302 8.81182 5.80198 10.7054 5.57323C12.5989 5.34448 14.5185 5.65741 16.2414 6.47568C17.9642 7.29396 19.4197 8.58404 20.4389 10.1962C21.4581 11.8084 21.9992 13.6765 21.9995 15.5838C21.9995 15.8269 22.096 16.0601 22.2679 16.232C22.4399 16.4039 22.673 16.5005 22.9161 16.5005C23.1593 16.5005 23.3924 16.4039 23.5643 16.232C23.7363 16.0601 23.8328 15.8269 23.8328 15.5838C23.8321 13.6007 23.3364 11.6491 22.3907 9.90601C21.445 8.1629 20.0793 6.68336 18.4173 5.60151C20.0033 4.01248 21.9784 2.86726 24.1453 2.28015C26.3123 1.69304 28.5954 1.68459 30.7667 2.25564C32.9379 2.82669 34.9214 3.95727 36.5192 5.53451C38.1169 7.11175 39.273 9.08049 39.872 11.2442C39.9027 11.3617 39.9565 11.4719 40.0301 11.5685C40.1038 11.665 40.1959 11.746 40.3011 11.8066C40.4063 11.8673 40.5225 11.9065 40.643 11.9218C40.7635 11.9372 40.8858 11.9285 41.0028 11.8962C41.1199 11.8639 41.2294 11.8086 41.3249 11.7336C41.4205 11.6587 41.5001 11.5654 41.5593 11.4594C41.6185 11.3534 41.6561 11.2366 41.6698 11.116C41.6835 10.9953 41.6731 10.8731 41.6392 10.7565C41.1848 9.11255 40.4447 7.56133 39.4529 6.17375C40.6106 5.72543 41.8418 5.49701 43.0833 5.50021C45.5807 5.50037 47.9891 6.42714 49.8424 8.10108C51.6957 9.77502 52.8619 12.0771 53.1153 14.5615C53.3688 17.0459 52.6914 19.5361 51.2143 21.5497C49.7372 23.5634 47.5655 24.9574 45.1196 25.4618Z" fill="#00631C"/>
</svg>
