<svg width="52" height="50" viewBox="0 0 52 50" fill="none" xmlns="http://www.w3.org/2000/svg">
<g clip-path="url(#clip0)">
<path d="M25.0018 48.3871C13.6422 48.3871 6.30212 40.373 6.30212 27.9757C6.3308 21.3339 8.18628 14.8193 11.6779 9.10131C15.3542 3.23173 20.087 0 25.0018 0C29.9167 0 34.6495 3.23173 38.3258 9.10131C41.8174 14.8193 43.6729 21.3339 43.7015 27.9757C43.7015 40.373 36.3615 48.3871 25.0018 48.3871ZM25.0018 1.32308C15.2405 1.32308 7.6692 15.6502 7.6692 27.9768C7.6692 39.5708 14.4726 47.064 25.0018 47.064C35.5311 47.064 42.3345 39.572 42.3345 27.9768C42.3345 15.6502 34.7632 1.32308 25.0018 1.32308Z" fill="black"/>
<path d="M33.6441 10.9094C33.5329 10.9097 33.4234 10.8836 33.325 10.8336C33.2267 10.7835 33.1424 10.7109 33.0797 10.6221C30.597 7.11407 27.6531 5.10336 25.0018 5.10336C24.8205 5.10336 24.6466 5.03366 24.5184 4.9096C24.3903 4.78553 24.3182 4.61727 24.3182 4.44182C24.3182 4.26636 24.3903 4.0981 24.5184 3.97403C24.6466 3.84997 24.8205 3.78027 25.0018 3.78027C28.1566 3.78027 31.4259 5.94522 34.2073 9.87516C34.2776 9.97448 34.3186 10.0905 34.3258 10.2107C34.333 10.3309 34.3062 10.4507 34.2482 10.5572C34.1903 10.6637 34.1034 10.7529 33.9969 10.8152C33.8905 10.8775 33.7685 10.9104 33.6441 10.9106V10.9094Z" fill="black"/>
</g>
<line y1="-1" x2="69.5767" y2="-1" transform="matrix(0.718575 0.695449 -0.718575 0.695449 0 1.61292)" stroke="black" stroke-width="2"/>
<defs>
<clipPath id="clip0">
<rect width="49.9961" height="48.3871" fill="white" transform="translate(0.00378418)"/>
</clipPath>
</defs>
</svg>
