<svg width="71" height="71" viewBox="0 0 71 71" fill="none" xmlns="http://www.w3.org/2000/svg">
<g clip-path="url(#clip0)">
<path d="M61.0726 27.2326C58.0325 28.0159 55.4401 29.9098 53.7757 32.5706L52.8181 34.0993L48.7568 31.098L47.9043 28.5987C46.5893 24.7448 43.6607 21.6829 39.8698 20.1977L36.88 19.0262C31.8637 17.0602 26.2004 18.1942 22.3191 21.8926C18.9765 22.6223 15.8205 24.0385 13.0211 26.1223L2.64246 33.8471C2.44133 33.9966 2.32587 34.2305 2.32763 34.4791L2.34334 36.6976C2.34511 36.9462 2.46498 37.1796 2.6671 37.3251L13.1547 44.9027C15.975 46.9405 19.1403 48.3103 22.4813 48.9932L24.2532 50.7401C25.9233 52.3867 28.3663 53.0246 30.6291 52.4042L39.113 50.0774C40.2797 49.7576 41.2903 49.1488 42.0828 48.3449C43.4014 47.0075 44.108 45.1281 43.9303 43.1373L52.833 36.3609L53.8121 37.876C55.5152 40.5117 58.1337 42.3715 61.1845 43.1106C61.4524 43.1761 61.733 43.0951 61.925 42.9004C61.9359 42.8893 61.9475 42.8776 61.9573 42.8654C62.1497 42.6458 62.2022 42.3377 62.0958 42.0661L59.3932 35.1841L61.9981 28.2646C62.1011 27.9921 62.0431 27.6848 61.8482 27.4674C61.6533 27.25 61.3538 27.1599 61.0726 27.2326ZM27.3605 22.8806C32.245 22.846 37.0989 24.4259 41.0268 27.3287L51.7295 35.2379L41.14 43.2979C37.2535 46.2561 32.423 47.904 27.5381 47.9392C23.5822 47.9667 19.7716 46.9722 16.3623 45.0744C17.2648 44.573 18.0979 43.955 18.8367 43.2056C23.0711 38.9108 23.022 31.9725 18.7271 27.7381C17.9778 26.9992 17.136 26.3931 16.226 25.904C19.608 23.9581 23.4042 22.9097 27.3605 22.8806ZM37.5241 48.8938L33.3817 50.0297L31.5539 49.1316C33.0729 48.864 34.5582 48.4391 35.9995 47.8919L37.5241 48.8938ZM36.3086 20.4815L38.4713 21.3291L35.362 22.6389C34.5031 22.3461 33.6297 22.1026 32.7427 21.9061L36.0294 20.384C36.123 20.4182 36.2166 20.4457 36.3086 20.4815ZM37.4379 23.46L40.465 22.1845C41.1393 22.5333 41.767 22.9515 42.3587 23.413L39.6157 24.5682C38.9079 24.1633 38.1821 23.7923 37.4379 23.46ZM46.4246 29.1036L46.5482 29.4668L41.9549 26.0725C41.7205 25.8996 41.4725 25.7472 41.2327 25.5832L43.6551 24.5628C44.8839 25.8391 45.8368 27.3819 46.4246 29.1036ZM33.6374 19.7701L29.9812 21.4633C29.1072 21.3728 28.23 21.3121 27.3495 21.3184C26.7341 21.3227 26.1222 21.3536 25.5149 21.4032C27.9479 19.9336 30.8192 19.3503 33.6374 19.7701ZM3.89211 34.8641L13.9537 27.3752C14.1851 27.2029 14.4276 27.0515 14.664 26.8885C15.7672 27.3486 16.7678 28.0005 17.6302 28.8507C21.3114 32.4801 21.3535 38.4274 17.7241 42.1086C16.8739 42.9709 15.8826 43.637 14.7866 44.1133C14.5479 43.9536 14.3032 43.8057 14.0695 43.6366L9.7971 40.55C12.0801 40.1261 14.1788 39.0279 15.8435 37.3395L17.1286 36.036L16.016 34.939L14.7308 36.2425C12.9104 38.0889 10.4897 39.1253 7.90247 39.1801L3.90276 36.2899L3.89211 34.8641ZM25.3502 49.6275L25.1026 49.3834C25.9119 49.4583 26.7266 49.5078 27.5486 49.502C27.9176 49.4994 28.2859 49.4686 28.6542 49.4488L31.1067 50.6535L30.2157 50.8973C28.4894 51.3708 26.6253 50.8846 25.3502 49.6275ZM39.4523 48.2901L37.7284 47.1588C39.2629 46.4369 40.7318 45.5724 42.0857 44.5419L42.3489 44.3417C42.138 46.0702 41.0592 47.565 39.4523 48.2901ZM57.8245 34.9146C57.7562 35.0952 57.7576 35.2952 57.8285 35.4748L60.0395 41.104C58.0305 40.2873 56.3201 38.8763 55.1248 37.0275L53.9574 35.2216L55.0991 33.3993C56.2681 31.5326 57.9595 30.0986 59.9555 29.2536L57.8245 34.9146Z" fill="black"/>
<path d="M12.1452 34.414C12.751 33.7995 12.744 32.8102 12.1295 32.2043C11.515 31.5985 10.5257 31.6055 9.91988 32.22C9.31402 32.8345 9.32103 33.8238 9.93553 34.4296C10.55 35.0355 11.5393 35.0285 12.1452 34.414Z" fill="black"/>
<path d="M26.1529 29.8952L26.1372 27.6856C26.1363 27.4784 26.052 27.2801 25.9046 27.1348L23.6793 24.9408L22.5823 26.0535L24.5773 28.0204L24.5883 29.5826L22.6214 31.5776L23.7341 32.6746L25.9281 30.4493C26.0734 30.3018 26.1549 30.1024 26.1529 29.8952Z" fill="black"/>
<path d="M25.9986 40.3927L23.7733 38.1987L22.6763 39.3114L24.6713 41.2783L24.6823 42.8405L22.7154 44.8355L23.8281 45.9325L26.0221 43.7072C26.1674 43.5598 26.2489 43.3603 26.2469 43.1532L26.2312 40.9435C26.2303 40.7364 26.146 40.5381 25.9986 40.3927Z" fill="black"/>
<path d="M29.5144 36.5007L29.4987 34.2911C29.4978 34.0839 29.4135 33.8856 29.2661 33.7403L27.0408 31.5463L25.9438 32.6589L27.9388 34.6258L27.9498 36.1881L25.9829 38.1831L27.0956 39.2801L29.2896 37.0547C29.4349 36.9073 29.5164 36.7079 29.5144 36.5007Z" fill="black"/>
<path d="M30.3631 32.6276L32.5571 30.4023C32.7025 30.2549 32.7839 30.0554 32.7819 29.8482L32.7662 27.6386C32.7653 27.4314 32.681 27.2332 32.5336 27.0878L30.3083 24.8938L29.2113 26.0065L31.2063 27.9734L31.2174 29.5356L29.2504 31.5306L30.3631 32.6276Z" fill="black"/>
<path d="M30.4022 38.1517L29.3052 39.2644L31.3002 41.2313L31.3112 42.7935L29.3443 44.7885L30.457 45.8855L32.651 43.6602C32.7963 43.5128 32.8778 43.3133 32.8758 43.1062L32.8601 40.8965C32.8592 40.6894 32.7749 40.4911 32.6275 40.3457L30.4022 38.1517Z" fill="black"/>
<path d="M35.895 33.6933L33.6697 31.4993L32.5727 32.6119L34.5677 34.5788L34.5788 36.1411L32.6118 38.1361L33.7245 39.2331L35.9185 37.0077C36.0638 36.8603 36.1453 36.6609 36.1433 36.4537L36.1276 34.2441C36.1267 34.0369 36.0424 33.8386 35.895 33.6933Z" fill="black"/>
<path d="M37.8352 27.9264L37.8463 29.4886L36.4279 30.9273L37.5405 32.0243L39.186 30.3553C39.3314 30.2079 39.4128 30.0084 39.4108 29.8013L39.3952 27.5916C39.3943 27.3845 39.31 27.1862 39.1626 27.0408L37.4936 25.3953L36.3966 26.508L37.8352 27.9264Z" fill="black"/>
<path d="M37.9292 41.1843L37.9402 42.7465L36.5218 44.1852L37.6345 45.2822L39.28 43.6132C39.4253 43.4658 39.5068 43.2663 39.5048 43.0592L39.4891 40.8495C39.4882 40.6424 39.4039 40.4441 39.2565 40.2988L37.5875 38.6533L36.4905 39.7659L37.9292 41.1843Z" fill="black"/>
<path d="M41.1967 34.5318L41.2077 36.0941L39.2408 38.0891L40.3535 39.1861L42.5475 36.9608C42.6928 36.8133 42.7743 36.6139 42.7722 36.4067L42.7566 34.1971C42.7557 33.9899 42.6714 33.7916 42.524 33.6463L40.2987 31.4523L39.2017 32.5649L41.1967 34.5318Z" fill="black"/>
</g>
<line x1="4.70698" y1="11.2929" x2="52.707" y2="59.2929" stroke="black" stroke-width="2"/>
<defs>
<clipPath id="clip0">
<rect width="50" height="50" fill="white" transform="translate(-0.00012207 35.6049) rotate(-45.4059)"/>
</clipPath>
</defs>
</svg>
