<svg width="60" height="43" viewBox="0 0 60 43" fill="none" xmlns="http://www.w3.org/2000/svg">
<path d="M11 37.6826C12.1046 37.6826 13 36.6601 13 35.3988C13 34.1375 12.1046 33.115 11 33.115C9.89543 33.115 9 34.1375 9 35.3988C9 36.6601 9.89543 37.6826 11 37.6826Z" fill="#00631C"/>
<path d="M44.9999 37.6826C46.1045 37.6826 46.9999 36.6601 46.9999 35.3988C46.9999 34.1375 46.1045 33.115 44.9999 33.115C43.8954 33.115 42.9999 34.1375 42.9999 35.3988C42.9999 36.6601 43.8954 37.6826 44.9999 37.6826Z" fill="#00631C"/>
<path d="M59 0H19C18.7348 0 18.4804 0.120305 18.2929 0.334452C18.1054 0.548598 18 0.839044 18 1.14189V9.13514H8C7.80808 9.1352 7.62023 9.19833 7.45887 9.31698C7.29751 9.43563 7.16946 9.6048 7.09 9.80429L2.09 22.3651V22.3788C2.03243 22.523 2.00178 22.6794 2 22.8379V31.973H1C0.734784 31.973 0.48043 32.0933 0.292893 32.3074C0.105357 32.5216 0 32.812 0 33.1149V35.3987C0 36.3072 0.316071 37.1786 0.87868 37.821C1.44129 38.4634 2.20435 38.8244 3 38.8244H5.812C6.33684 39.8656 7.09275 40.7305 8.00356 41.3319C8.91436 41.9333 9.94789 42.2499 11 42.2499C12.0521 42.2499 13.0856 41.9333 13.9964 41.3319C14.9072 40.7305 15.6632 39.8656 16.188 38.8244H39.812C40.3368 39.8656 41.0928 40.7305 42.0036 41.3319C42.9144 41.9333 43.9479 42.2499 45 42.2499C46.0521 42.2499 47.0856 41.9333 47.9964 41.3319C48.9072 40.7305 49.6632 39.8656 50.188 38.8244H55C55.7957 38.8244 56.5587 38.4634 57.1213 37.821C57.6839 37.1786 58 36.3072 58 35.3987V34.2568H59C59.2652 34.2568 59.5196 34.1365 59.7071 33.9223C59.8946 33.7082 60 33.4177 60 33.1149V1.14189C60 0.839044 59.8946 0.548598 59.7071 0.334452C59.5196 0.120305 59.2652 0 59 0ZM20 2.28379H58V27.4054H20V2.28379ZM39.812 31.973H20V29.6892H41.69C40.9189 30.2759 40.2763 31.0573 39.812 31.973ZM8.644 11.4189H14V21.696H4.553L8.644 11.4189ZM4 23.9797H15C15.2652 23.9797 15.5196 23.8594 15.7071 23.6453C15.8946 23.4311 16 23.1407 16 22.8379V11.4189H18V31.973H16.188C15.6632 30.9318 14.9072 30.0669 13.9964 29.4655C13.0856 28.8641 12.0521 28.5474 11 28.5474C9.94789 28.5474 8.91436 28.8641 8.00356 29.4655C7.09275 30.0669 6.33684 30.9318 5.812 31.973H4V23.9797ZM3 36.5406C2.73478 36.5406 2.48043 36.4203 2.29289 36.2061C2.10536 35.992 2 35.7015 2 35.3987V34.2568H5.09C4.96999 35.0119 4.96999 35.7855 5.09 36.5406H3ZM11 39.9662C10.2089 39.9662 9.43552 39.6984 8.77772 39.1965C8.11992 38.6946 7.60723 37.9812 7.30448 37.1466C7.00173 36.312 6.92252 35.3936 7.07686 34.5076C7.2312 33.6216 7.61216 32.8077 8.17157 32.1689C8.73098 31.5301 9.44372 31.0951 10.2196 30.9189C10.9956 30.7426 11.7998 30.8331 12.5307 31.1788C13.2616 31.5245 13.8864 32.1099 14.3259 32.8611C14.7654 33.6122 15 34.4953 15 35.3987C15 36.6101 14.5786 37.7718 13.8284 38.6284C13.0783 39.485 12.0609 39.9662 11 39.9662ZM16.91 36.5406C17.03 35.7855 17.03 35.0119 16.91 34.2568H39.09C38.97 35.0119 38.97 35.7855 39.09 36.5406H16.91ZM45 39.9662C44.2089 39.9662 43.4355 39.6984 42.7777 39.1965C42.1199 38.6946 41.6072 37.9812 41.3045 37.1466C41.0017 36.312 40.9225 35.3936 41.0769 34.5076C41.2312 33.6216 41.6122 32.8077 42.1716 32.1689C42.731 31.5301 43.4437 31.0951 44.2196 30.9189C44.9956 30.7426 45.7998 30.8331 46.5307 31.1788C47.2616 31.5245 47.8864 32.1099 48.3259 32.8611C48.7654 33.6122 49 34.4953 49 35.3987C49 36.6101 48.5786 37.7718 47.8284 38.6284C47.0783 39.485 46.0609 39.9662 45 39.9662ZM56 35.3987C56 35.7015 55.8946 35.992 55.7071 36.2061C55.5196 36.4203 55.2652 36.5406 55 36.5406H50.91C51.03 35.7855 51.03 35.0119 50.91 34.2568H56V35.3987ZM58 31.973H50.188C49.7237 31.0573 49.0811 30.2759 48.31 29.6892H58V31.973Z" fill="#00631C"/>
<path d="M25.9999 20.5542C26.2652 20.5542 26.5195 20.4339 26.707 20.2197C26.8946 20.0056 26.9999 19.7151 26.9999 19.4123V15.9866H28.9999C29.2652 15.9866 29.5195 15.8663 29.707 15.6522C29.8946 15.438 29.9999 15.1476 29.9999 14.8447C29.9999 14.5419 29.8946 14.2514 29.707 14.0373C29.5195 13.8231 29.2652 13.7028 28.9999 13.7028H26.9999V11.419H29.9999C30.2652 11.419 30.5195 11.2987 30.707 11.0846C30.8946 10.8704 30.9999 10.58 30.9999 10.2771C30.9999 9.9743 30.8946 9.68385 30.707 9.46971C30.5195 9.25556 30.2652 9.13525 29.9999 9.13525H25.9999C25.7347 9.13525 25.4804 9.25556 25.2928 9.46971C25.1053 9.68385 24.9999 9.9743 24.9999 10.2771V19.4123C24.9999 19.7151 25.1053 20.0056 25.2928 20.2197C25.4804 20.4339 25.7347 20.5542 25.9999 20.5542Z" fill="#00631C"/>
<path d="M33.0001 20.5539C33.2653 20.5539 33.5196 20.4336 33.7072 20.2195C33.8947 20.0053 34.0001 19.7149 34.0001 19.412V16.748L36.2001 20.0972C36.2788 20.2171 36.3776 20.3182 36.4906 20.3946C36.6036 20.471 36.7286 20.5212 36.8586 20.5425C36.9886 20.5637 37.121 20.5554 37.2482 20.5182C37.3754 20.481 37.495 20.4155 37.6001 20.3256C37.7051 20.2356 37.7936 20.1229 37.8605 19.9938C37.9274 19.8648 37.9714 19.722 37.99 19.5735C38.0086 19.4251 38.0014 19.2739 37.9688 19.1286C37.9362 18.9834 37.8788 18.8469 37.8001 18.7269L35.8881 15.8162C36.5729 15.5749 37.1592 15.0609 37.5402 14.3677C37.9212 13.6744 38.0716 12.8481 37.964 12.0389C37.8565 11.2297 37.4982 10.4915 36.9542 9.95859C36.4102 9.42566 35.7168 9.13341 35.0001 9.13502H33.0001C32.7348 9.13502 32.4805 9.25532 32.293 9.46947C32.1054 9.68361 32.0001 9.97406 32.0001 10.2769V19.412C32.0001 19.7149 32.1054 20.0053 32.293 20.2195C32.4805 20.4336 32.7348 20.5539 33.0001 20.5539ZM36.0001 12.5607C36.0001 12.8635 35.8947 13.154 35.7072 13.3681C35.5196 13.5823 35.2653 13.7026 35.0001 13.7026H34.0001V11.4188H35.0001C35.2653 11.4188 35.5196 11.5391 35.7072 11.7533C35.8947 11.9674 36.0001 12.2578 36.0001 12.5607Z" fill="#00631C"/>
<path d="M40.9999 20.5542H44.9999C45.2652 20.5542 45.5195 20.4339 45.707 20.2197C45.8946 20.0056 45.9999 19.7151 45.9999 19.4123C45.9999 19.1094 45.8946 18.819 45.707 18.6048C45.5195 18.3907 45.2652 18.2704 44.9999 18.2704H41.9999V15.9866H43.9999C44.2652 15.9866 44.5195 15.8663 44.707 15.6522C44.8946 15.438 44.9999 15.1476 44.9999 14.8447C44.9999 14.5419 44.8946 14.2514 44.707 14.0373C44.5195 13.8231 44.2652 13.7028 43.9999 13.7028H41.9999V11.419H44.9999C45.2652 11.419 45.5195 11.2987 45.707 11.0846C45.8946 10.8704 45.9999 10.58 45.9999 10.2771C45.9999 9.9743 45.8946 9.68385 45.707 9.46971C45.5195 9.25556 45.2652 9.13525 44.9999 9.13525H40.9999C40.7347 9.13525 40.4804 9.25556 40.2928 9.46971C40.1053 9.68385 39.9999 9.9743 39.9999 10.2771V19.4123C39.9999 19.7151 40.1053 20.0056 40.2928 20.2197C40.4804 20.4339 40.7347 20.5542 40.9999 20.5542Z" fill="#00631C"/>
<path d="M48.0001 20.5542H52.0001C52.2653 20.5542 52.5197 20.4339 52.7072 20.2197C52.8947 20.0056 53.0001 19.7151 53.0001 19.4123C53.0001 19.1094 52.8947 18.819 52.7072 18.6048C52.5197 18.3907 52.2653 18.2704 52.0001 18.2704H49.0001V15.9866H51.0001C51.2653 15.9866 51.5197 15.8663 51.7072 15.6522C51.8947 15.438 52.0001 15.1476 52.0001 14.8447C52.0001 14.5419 51.8947 14.2514 51.7072 14.0373C51.5197 13.8231 51.2653 13.7028 51.0001 13.7028H49.0001V11.419H52.0001C52.2653 11.419 52.5197 11.2987 52.7072 11.0846C52.8947 10.8704 53.0001 10.58 53.0001 10.2771C53.0001 9.9743 52.8947 9.68385 52.7072 9.46971C52.5197 9.25556 52.2653 9.13525 52.0001 9.13525H48.0001C47.7349 9.13525 47.4805 9.25556 47.293 9.46971C47.1054 9.68385 47.0001 9.9743 47.0001 10.2771V19.4123C47.0001 19.7151 47.1054 20.0056 47.293 20.2197C47.4805 20.4339 47.7349 20.5542 48.0001 20.5542Z" fill="#00631C"/>
</svg>
