<svg width="60" height="58" viewBox="0 0 60 58" fill="none" xmlns="http://www.w3.org/2000/svg">
<path d="M29.7999 57.2537C27.7098 57.2537 25.6208 56.8324 23.6862 55.991L14.4356 51.9696C11.0889 50.5139 7.55039 49.5919 3.91842 49.2289L0.880581 48.9251C0.380429 48.8753 0 48.4546 0 47.9522V38.423C0 38.2115 0.0688129 38.0056 0.195809 37.8367C0.422947 37.5329 5.86755 30.42 14.1844 32.2707C18.862 33.3102 22.6282 35.2554 24.964 36.7044C26.6597 37.7561 28.6474 38.3117 30.7124 38.3117H39.9629C41.5574 38.3117 42.9588 39.1553 43.7426 40.4208L51.7098 31.2418C53.2544 29.1791 55.7815 27.9159 58.4271 27.9159H59.0224C59.353 27.9159 59.6607 28.0826 59.8409 28.359C60.0216 28.6354 60.0501 28.985 59.9175 29.2871L52.7118 45.6635C51.1363 49.2451 47.9284 51.9506 44.1314 52.9L42.8637 53.2166L35.489 56.1666C33.6741 56.8923 31.7367 57.2537 29.7999 57.2537ZM1.95585 47.0671L4.11311 47.2831C7.94705 47.6663 11.6825 48.6403 15.216 50.1766L24.466 54.1979C27.7187 55.6122 31.4699 55.6676 34.7634 54.3501L42.1985 51.376C42.2399 51.3598 42.2819 51.3464 42.3249 51.3358L43.657 51.0023C46.8722 50.1984 49.5883 47.908 50.9215 44.8757L57.494 29.9389C55.8111 30.1867 54.2626 31.0936 53.2309 32.4687L44.405 42.6407C44.4061 42.6788 44.4067 42.7163 44.4067 42.7549C44.4067 45.2047 42.4133 47.198 39.9635 47.198H27.0569C25.3791 47.198 23.7209 47.4671 22.1292 47.9975L21.77 47.0856L21.4663 46.1563L21.516 46.1401C23.3024 45.5449 25.1682 45.2422 27.0569 45.2422H39.9635C41.3347 45.2422 42.4514 44.1261 42.4514 42.7543C42.4514 41.3825 41.3353 40.2664 39.9635 40.2664H30.7129C28.2832 40.2664 25.9391 39.609 23.934 38.3654C21.7275 36.9964 18.1705 35.1597 13.7615 34.179C7.46312 32.782 2.93098 37.6157 1.95641 38.7687V47.0671H1.95585Z" fill="#00631C"/>
<path d="M38.5072 27.6949C37.0034 27.6949 35.3172 27.2306 33.461 26.3025C33.2361 26.1895 33.0626 25.9936 32.9776 25.757C32.9021 25.545 31.1549 20.5194 33.9315 16.8029C35.9494 14.1013 39.7436 12.8845 45.2151 13.1894C45.7141 13.2168 46.1119 13.6168 46.1365 14.117C46.1561 14.5052 46.5595 23.6697 41.8863 26.7209C40.8928 27.3705 39.7638 27.6949 38.5072 27.6949ZM34.708 24.7332C37.2764 25.9377 39.3296 26.0557 40.8178 25.084C43.5888 23.2741 44.1879 17.9017 44.2025 15.1055C39.9154 15.0009 36.9967 15.9671 35.4979 17.9727C33.7144 20.3611 34.4076 23.6462 34.708 24.7332Z" fill="#00631C"/>
<path d="M23.5542 14.884C21.8204 14.884 19.8204 14.5125 18.0749 13.2342C15.1142 11.0646 13.7536 6.93415 14.03 0.958061C14.0535 0.458469 14.4496 0.0567808 14.9492 0.0271297C15.3721 0.00307316 25.383 -0.531205 28.7515 4.52514C30.3202 6.87876 30.1915 9.96136 28.3705 13.689C28.2597 13.9156 28.0662 14.0907 27.8295 14.1774C27.698 14.2261 25.8625 14.884 23.5542 14.884ZM27.4922 13.2599H27.5017H27.4922ZM15.9545 1.95109C15.8701 6.73778 16.9705 10.0005 19.2301 11.6565C21.9357 13.6386 25.6297 12.7961 26.7912 12.4576C28.1199 9.57421 28.2323 7.27206 27.1246 5.60936C25.0658 2.51894 19.0282 1.91473 15.9545 1.95109Z" fill="#00631C"/>
<path d="M31.1902 39.9229C31.1595 39.9229 31.1287 39.9212 31.0974 39.9184C30.5765 39.8692 30.1866 39.4188 30.2129 38.8957C30.2705 37.7455 30.369 36.6546 30.5027 35.6207C30.9094 28.7014 30.6996 12.588 20.5119 8.13024C20.0174 7.91373 19.7913 7.33749 20.0079 6.84237C20.2238 6.34838 20.8017 6.12292 21.2957 6.33886C27.2992 8.9655 31.0761 15.505 32.2157 25.2501C32.3181 26.1234 32.3947 26.9844 32.4518 27.823C35.1349 21.043 39.2397 18.6474 39.4841 18.5103C39.9541 18.2446 40.5505 18.4136 40.8156 18.8829C41.0791 19.3529 40.9135 19.9476 40.4453 20.2128C40.3418 20.2732 34.0474 24.0506 32.4675 35.6996C32.3472 37.6924 32.1738 38.9629 32.1575 39.0792C32.0898 39.5671 31.673 39.9229 31.1902 39.9229Z" fill="#00631C"/>
</svg>
