<svg width="69" height="69" viewBox="0 0 69 69" fill="none" xmlns="http://www.w3.org/2000/svg">
<g clip-path="url(#clip0)">
<path d="M36.8922 14.2527C35.2919 13.9893 33.6492 14.2436 32.2034 14.9786C29.7218 16.3277 28.5797 19.146 28.3373 21.3343C28.2099 23.2093 28.2981 25.0927 28.6004 26.9475C28.7204 27.9357 28.8437 28.9572 28.9136 29.9977C29.2232 33.8405 28.659 37.7036 27.2633 41.2974C26.8926 42.2408 26.4626 43.1516 26.0479 44.0333C25.2513 45.5124 24.6668 47.0963 24.3117 48.7383C24.1224 50.0504 24.3907 51.3877 25.0713 52.5253C25.6099 53.4282 26.3565 54.1894 27.2489 54.7452C28.6878 55.5909 30.3093 56.0775 31.9761 56.1639C33.3183 56.2587 34.6671 56.1808 35.9894 55.9321C39.4794 55.2023 42.776 53.7441 45.6638 51.653C53.958 45.8695 58.2084 37.0031 55.9995 30.0913C54.1632 24.3528 48.8205 19.3448 40.207 15.2621C39.9171 15.1237 39.6019 14.9908 39.2383 14.8549L38.7761 14.6839C38.1599 14.4929 37.5301 14.3488 36.8922 14.2527ZM38.2481 16.2309L38.6641 16.3863C38.9786 16.5035 39.2503 16.6174 39.503 16.7378C46.1192 19.8738 50.6915 23.5292 53.092 27.6032C53.6497 28.5443 54.101 29.5446 54.4374 30.5855C56.4285 36.8208 52.4344 44.9291 44.7274 50.3076C42.0316 52.2634 38.9537 53.6286 35.6946 54.3144C34.5108 54.539 33.3032 54.6111 32.1011 54.529C30.6995 54.4615 29.3345 54.0586 28.1209 53.3542C26.5973 52.4462 25.7433 50.7331 25.9352 48.9699C26.2741 47.4921 26.8101 46.0666 27.5287 44.7316C27.955 43.8258 28.3953 42.889 28.7848 41.8984C30.2709 38.0783 30.8736 33.9715 30.5476 29.8855C30.4778 28.7982 30.3476 27.7571 30.2211 26.748C29.9385 25.0182 29.8516 23.2622 29.962 21.513C30.1577 19.7365 31.0535 17.4657 32.9816 16.4171C34.1149 15.8516 35.3988 15.6616 36.6473 15.8746C37.1884 15.9545 37.723 16.0739 38.2467 16.2317L38.2481 16.2309Z" fill="black"/>
<path d="M19.85 19.395C19.6828 21.5697 19.7707 23.7565 20.1121 25.9108C20.2268 26.8659 20.3456 27.8538 20.411 28.8238C20.6841 32.2502 20.1811 35.6941 18.9395 38.8993C18.5995 39.7561 18.1844 40.6324 17.7852 41.4823C16.8159 43.2879 16.1174 45.2263 15.7122 47.2352C15.4121 49.3302 15.8371 51.4648 16.9166 53.2851C17.2099 53.7824 17.5475 54.2521 17.9253 54.6886C19.0219 55.9078 20.4358 56.798 22.0092 57.2599C24.6595 58.091 29.4573 59.4795 31.8022 59.4402L31.8085 59.4365C33.4008 59.5427 35.0002 59.4473 36.5686 59.1528C40.5205 58.3405 44.2556 56.7002 47.5279 54.3402C57.1501 47.6362 61.8034 37.4868 59.1206 29.0895C56.9966 22.4446 51.1067 16.797 41.6146 12.2969C41.5113 12.2474 41.4011 12.201 41.2943 12.1536C41.2903 12.15 41.2862 12.1468 41.2818 12.1438C38.4252 10.8813 35.4501 9.906 32.4004 9.23227C30.048 8.85654 27.6372 9.24858 25.5252 10.3503C21.863 12.3407 20.1926 16.3276 19.85 19.395ZM57.5616 29.5857C60.4056 38.4941 54.1056 47.7604 46.6002 52.9935C43.5192 55.2204 40.0019 56.7703 36.2793 57.5413C34.8201 57.8172 33.3315 57.9042 31.8501 57.8004C29.9185 57.6938 28.0413 57.1223 26.378 56.1346C23.7323 54.5604 22.2814 51.5592 22.6908 48.5079C23.0607 46.702 23.6915 44.9595 24.5635 43.3354C24.9678 42.4779 25.3857 41.5903 25.7353 40.7013C27.0411 37.3338 27.5686 33.7146 27.2785 30.1145C27.2084 29.1092 27.089 28.1121 26.9713 27.1454C26.651 25.1663 26.5629 23.1566 26.7088 21.157C26.9933 18.5576 28.3844 15.1882 31.4206 13.5371C33.1791 12.6252 35.1858 12.3077 37.1399 12.6321C37.8739 12.7414 38.5984 12.9071 39.307 13.1276L39.8113 13.3166C40.2137 13.4667 40.5728 13.6176 40.9091 13.7781C48.144 17.207 53.1718 21.2866 55.9144 25.9411C56.5976 27.0908 57.15 28.3133 57.5616 29.5857ZM32.1046 10.8422C32.1188 10.8453 32.5747 10.9457 33.2925 11.1289C32.3652 11.322 31.4705 11.6477 30.636 12.0957C27.0467 14.0499 25.4078 17.9658 25.0781 20.9762C24.9194 23.1012 25.009 25.2374 25.3449 27.3417C25.4597 28.2873 25.5786 29.2657 25.6437 30.2253C25.917 33.5817 25.4274 36.9564 24.2117 40.0968C23.881 40.9386 23.4749 41.8011 23.0815 42.6351C22.1371 44.4036 21.4576 46.3012 21.0649 48.2673C20.7778 50.3238 21.2011 52.4167 22.2649 54.1999C22.6623 54.8735 23.1396 55.4966 23.6866 56.0556C23.2985 55.9379 22.9102 55.8214 22.5042 55.6943C21.2213 55.3243 20.0663 54.6055 19.1677 53.6179C17.679 51.9392 17.0073 49.689 17.3322 47.4689C17.7154 45.6214 18.3661 43.8396 19.2637 42.1799C19.6755 41.3093 20.1021 40.4091 20.4623 39.5043C21.7939 36.0712 22.3349 32.3823 22.045 28.7115C21.9771 27.7002 21.8557 26.6901 21.738 25.7138C21.4128 23.6852 21.3259 21.6255 21.4792 19.5767C21.7756 16.9199 23.1996 13.4788 26.3088 11.7885C28.0903 10.8628 30.1212 10.5313 32.1046 10.8422Z" fill="black"/>
<path d="M39.5466 35.325C39.7234 36.5745 40.1388 37.7783 40.7703 38.8709C41.3174 39.8242 42.0733 40.6411 42.9813 41.2604C44.2159 42.1109 45.7559 42.3912 47.211 42.0304C50.662 41.151 52.9238 36.7662 52.2521 32.2567C51.9904 29.8845 50.7453 27.731 48.82 26.3206C47.5853 25.47 46.0452 25.1895 44.5898 25.55C41.1367 26.4306 38.8771 30.8141 39.5466 35.325ZM44.9898 27.141C45.9977 26.8909 47.0645 27.0914 47.9128 27.6905C48.6116 28.1746 49.1924 28.8098 49.6121 29.5491C50.1372 30.4596 50.4832 31.4623 50.6314 32.5029C51.182 36.2047 49.4663 39.7692 46.8061 40.4471C45.8002 40.6965 44.7356 40.497 43.8884 39.9001C42.3596 38.7372 41.3764 36.9967 41.1694 35.0871C40.6174 31.3813 42.3324 27.8172 44.9898 27.141Z" fill="black"/>
<path d="M43.2402 34.3825C43.3635 35.2714 43.6574 36.1281 44.1057 36.9056C44.4406 37.5017 44.9033 38.0163 45.4607 38.4123C45.8176 38.6896 46.2754 38.8023 46.7203 38.7223C47.3021 38.4546 47.7565 37.9705 47.9868 37.3729C48.5907 36.07 48.7901 34.616 48.5592 33.1987C48.4001 31.6083 47.5975 30.1522 46.3377 29.1685C45.9824 28.8927 45.5267 28.7808 45.0841 28.8607C44.1769 29.0907 42.7906 31.3623 43.2402 34.3825ZM46.935 33.4422C47.1174 34.5247 46.9724 35.637 46.5188 36.6367C46.4563 36.7642 46.3836 36.8866 46.3015 37.0026C45.4795 36.2632 44.9652 35.2418 44.8609 34.1411C44.6294 32.9166 44.8546 31.6496 45.494 30.5799C46.3162 31.3192 46.8304 32.3407 46.9346 33.4415L46.935 33.4422Z" fill="black"/>
</g>
<line x1="10.8156" y1="10.3698" x2="61.9396" y2="61.4939" stroke="black" stroke-width="2"/>
<defs>
<clipPath id="clip0">
<rect width="50" height="50" fill="white" transform="translate(43.0778) rotate(59.4918)"/>
</clipPath>
</defs>
</svg>
