<svg width="60" height="60" viewBox="0 0 60 60" fill="none" xmlns="http://www.w3.org/2000/svg">
<path d="M60 33.8216C60 29.6081 57.9571 25.5842 54.5352 23.0584C53.8374 22.5416 52.9723 22.2581 52.1003 22.2581C51.0087 22.2581 49.9858 22.6945 49.2348 23.4368C49.0945 23.3197 48.9668 23.191 48.8216 23.0797C48.2845 22.6694 47.64 22.4255 46.9781 22.3248L47.4048 17.6323C47.4145 17.52 47.4194 17.4068 47.4194 17.2935C47.4194 15.2284 45.7394 13.5484 43.6742 13.5484H43.4226C41.3574 13.5484 39.6774 15.2284 39.6774 17.2935C39.6774 17.4068 39.6823 17.52 39.6929 17.6332L40.1216 22.3461C39.5081 22.4623 38.9148 22.6994 38.4135 23.0729C38.2403 23.2026 38.0864 23.3516 37.92 23.4881C37.8339 23.399 37.7429 23.3158 37.649 23.2355C37.7042 22.9132 37.7419 22.5871 37.7419 22.2581C37.7419 21.029 37.3587 19.8532 36.6484 18.871C37.3587 17.8887 37.7419 16.7139 37.7419 15.4839C37.7419 12.1703 34.9384 9.48484 31.5977 9.68806C30.9765 7.90742 29.5277 6.56516 27.7471 6.04742C26.5684 4.57742 24.7916 3.76161 22.8881 3.88161C22.0868 1.58516 19.9171 0 17.4194 0C15.3242 0 13.4168 1.12064 12.389 2.90613C9.82645 2.99226 7.61129 4.80097 6.97645 7.26484C3.98032 8.38258 1.93548 11.2829 1.93548 14.5161C1.93548 17.1087 3.21097 19.4787 5.32161 20.911C5.00323 21.6377 4.83871 22.4235 4.83871 23.2258C4.83871 24.9677 5.6129 26.5868 6.94161 27.6832C6.83032 28.1323 6.77419 28.5842 6.77419 29.0323C6.77419 31.9974 9.00968 34.4516 11.8839 34.7971L14.0245 40.7923C12.9281 41.6003 11.9942 42.6116 11.2752 43.7729L6.20516 42.6465C6.01258 42.6019 5.81419 42.5806 5.61484 42.5806C4.11968 42.5806 2.90323 43.7971 2.90323 45.2923V45.6755C2.90323 45.9465 2.95548 46.2039 3.03 46.4516H2.90323C1.30258 46.4516 0 47.7542 0 49.3548C0 50.9555 1.30258 52.2581 2.90323 52.2581H3.03C2.95548 52.5058 2.90323 52.7632 2.90323 53.0342V53.4174C2.90323 54.9126 4.11968 56.129 5.61484 56.129C5.81419 56.129 6.01258 56.1077 6.20323 56.0642L11.2752 54.9368C13.1535 57.9697 16.501 60 20.3226 60H20.55C21.0881 60 21.6329 59.9584 22.1681 59.8761L55.3529 54.7713C58.0452 54.3561 60 52.079 60 49.3548C60 47.1764 58.739 45.3019 56.8616 44.4184C58.8668 42.0232 60 38.9845 60 35.8558V33.8216ZM47.6448 24.6174C50.5336 26.8258 52.2581 30.3435 52.2581 34.0297V37.5842C52.2581 39.5681 51.7635 41.5103 50.8316 43.2435L43.0713 42.0494C42.7519 40.6452 42.5806 39.211 42.5806 37.771V33.8419C42.5806 32.8665 42.6784 31.8919 42.8265 30.9261C43.0635 30.9465 43.2997 30.9677 43.5484 30.9677C46.3074 30.9677 48.3871 29.7194 48.3871 28.0645C48.3871 27.151 47.7552 26.34 46.6606 25.8077L46.8029 24.2419C47.1048 24.3029 47.3952 24.4248 47.6448 24.6174ZM43.4226 15.4839H43.6752C44.6729 15.4839 45.4848 16.2958 45.4848 17.2935C45.4848 17.3487 45.4829 17.4039 45.4771 17.4581L44.5984 27.1229L45.3368 27.36C46.1845 27.631 46.4516 27.9881 46.4516 28.0645C46.4516 28.3055 45.4219 29.0323 43.5484 29.0323C41.6748 29.0323 40.6452 28.3055 40.6452 28.0645C40.6452 27.9881 40.9123 27.631 41.76 27.359L42.4984 27.1219L41.6197 17.4581C41.6148 17.4029 41.6129 17.3477 41.6129 17.2935C41.6129 16.2958 42.4248 15.4839 43.4226 15.4839ZM40.2968 24.2739L40.4361 25.8077C39.3416 26.34 38.7097 27.151 38.7097 28.0645C38.7097 29.131 39.5797 30.0223 40.9316 30.5255C40.7584 31.6239 40.6452 32.7329 40.6452 33.8419V37.771C40.6452 39.1006 40.7729 40.4284 41.0206 41.7339L35.3158 40.8561C35.0052 39.7926 34.8387 38.6961 34.8387 37.5832V34.0287C34.8387 30.3484 36.6077 26.8316 39.571 24.6232C39.7868 24.4626 40.0355 24.3445 40.2968 24.2739ZM29.8384 40.0132C29.3129 38.6835 29.0323 37.291 29.0323 35.8558V33.8206C29.0323 30.2187 30.7819 26.7774 33.7113 24.6135C34.079 24.3426 34.5358 24.1935 34.9964 24.1935C35.581 24.1935 36.119 24.4287 36.5129 24.8226C34.231 27.3232 32.9032 30.6077 32.9032 34.0297V37.5842C32.9032 38.5819 33.0223 39.569 33.2381 40.5368L29.8384 40.0132ZM29.9294 10.9365L30.1055 11.9323L31.0926 11.7126C31.3926 11.6458 31.6684 11.6129 31.9355 11.6129C34.0703 11.6129 35.8064 13.349 35.8064 15.4839C35.8064 16.501 35.4116 17.4629 34.6955 18.1926L34.0297 18.871L34.6955 19.5494C35.4116 20.279 35.8064 21.241 35.8064 22.2581C35.8064 22.2871 35.8006 22.3161 35.8006 22.3461C35.5384 22.2939 35.2713 22.2581 34.9964 22.2581C34.1245 22.2581 33.2594 22.5416 32.5616 23.0574C30.8003 24.3571 29.4135 26.0574 28.4729 27.9726C28.1061 26.8306 27.721 25.7371 27.3242 24.6987C28.2194 19.9703 31.5397 17.2335 31.5735 17.2055L30.9677 16.4516L30.3629 15.6958C30.2284 15.8032 27.6106 17.941 26.1406 21.7974C24.1268 17.1735 22.2261 14.1823 22.1042 13.9926L20.4755 15.0397C20.5016 15.0794 21.9774 17.401 23.6952 21.0968C20.8006 20.0071 17.5113 20.3081 17.3226 20.3274L17.5152 22.2532C18.9706 22.1071 23.0932 22.1777 25.019 24.1432C25.6974 25.8106 26.3661 27.6387 26.9564 29.5974C24.0145 28.0887 20.5045 28.0645 20.3226 28.0645V30C20.3681 30 24.6765 30.029 27.2265 32.0564C27.1471 32.639 27.0968 33.2274 27.0968 33.8216V35.8568C27.0968 37.1642 27.2981 38.4426 27.6716 39.6813L22.1681 38.8345C21.8777 38.79 21.5845 38.76 21.2903 38.7387C19.1555 38.7387 17.4194 36.989 17.4194 34.8397C17.4194 34.3887 17.5094 33.9261 17.6855 33.4626L17.9681 32.7223L17.2974 32.2984C16.1623 31.5803 15.4839 30.36 15.4839 29.0323C15.4839 28.2706 15.7074 27.5323 16.1303 26.8955L16.7332 25.9897L15.7635 25.4971C13.8 24.4984 12.5806 22.5165 12.5806 20.3226C12.5806 17.7474 14.311 15.4539 16.7894 14.7445L17.3903 14.5723L17.4803 13.9539C17.7561 12.0677 19.3945 10.6452 21.2903 10.6452C21.3261 10.6452 21.361 10.6529 21.3958 10.6577C21.4635 10.6674 21.5323 10.6761 21.601 10.681L22.2948 10.7371L22.5677 10.0965C23.1784 8.66613 24.5758 7.74194 26.129 7.74194C28.0045 7.74194 29.6023 9.08516 29.9294 10.9365ZM13.2629 32.9032H12.5806C10.4458 32.9032 8.70968 31.1671 8.70968 29.0323C8.70968 28.5803 8.79968 28.1177 8.97581 27.6561L9.25935 26.9158L8.58871 26.4919C7.45258 25.7739 6.77419 24.5535 6.77419 23.2258C6.77419 22.4642 6.99774 21.7258 7.42065 21.089L8.02355 20.1832L7.05387 19.6906C5.09032 18.6919 3.87097 16.71 3.87097 14.5161C3.87097 11.941 5.60129 9.64742 8.07871 8.93806L8.67968 8.76581L8.76968 8.14742C9.04645 6.26129 10.6848 4.83871 12.5806 4.83871C12.6174 4.83871 12.6532 4.84645 12.689 4.85129C12.7548 4.86 12.8206 4.86871 12.8884 4.87452L13.5852 4.93258L13.859 4.28903C14.4687 2.85968 15.8661 1.93548 17.4194 1.93548C19.2948 1.93548 20.8926 3.27871 21.2197 5.13L21.3958 6.12581L22.3829 5.90613C22.6829 5.83935 22.9587 5.80645 23.2258 5.80645C23.671 5.80645 24.0939 5.90419 24.4984 6.04548C23.0758 6.46161 21.8506 7.40613 21.0987 8.71258C18.5361 8.79871 16.321 10.6074 15.6861 13.0713C12.69 14.189 10.6452 17.0894 10.6452 20.3226C10.6452 22.9152 11.9206 25.2852 14.0313 26.7174C13.7129 27.4442 13.5484 28.23 13.5484 29.0323C13.5484 30.7742 14.3226 32.3932 15.6513 33.4906C15.54 33.9397 15.4839 34.3906 15.4839 34.8387C15.4839 36.539 16.2155 38.0671 17.3739 39.1335C16.799 39.3 16.2465 39.5158 15.7161 39.7723L13.2629 32.9032ZM4.83871 45.6755V45.2923C4.83871 44.8064 5.30903 44.4319 5.78419 44.5345L10.3897 45.5584C10.2774 45.8506 10.1768 46.1477 10.0906 46.4516H5.61484C5.1871 46.4516 4.83871 46.1032 4.83871 45.6755ZM1.93548 49.3548C1.93548 48.8216 2.37 48.3871 2.90323 48.3871H5.61484H9.72581C9.69774 48.7065 9.67742 49.0277 9.67742 49.3548C9.67742 49.6819 9.69774 50.0032 9.72677 50.3226H5.61484H2.90323C2.37 50.3226 1.93548 49.8881 1.93548 49.3548ZM5.78226 54.1752C5.32355 54.2739 4.83871 53.9023 4.83871 53.4174V53.0342C4.83871 52.6064 5.1871 52.2581 5.61484 52.2581H10.0897C10.1758 52.5619 10.2774 52.859 10.3887 53.1513L5.78226 54.1752ZM58.0645 49.3548C58.0645 51.1171 56.8006 52.59 55.0597 52.8581L21.8758 57.9629C21.4365 58.0306 20.9903 58.0645 20.55 58.0645H20.3226C15.5206 58.0645 11.6129 54.1568 11.6129 49.3548C11.6129 44.5529 15.5206 40.6452 20.3226 40.6452H20.55C20.9903 40.6452 21.4365 40.679 21.8748 40.7458L55.0587 45.8506C56.8006 46.1197 58.0645 47.5926 58.0645 49.3548ZM58.0645 35.8558C58.0645 38.8326 56.8597 41.7126 54.7635 43.8474L52.8406 43.5513C53.7242 41.6952 54.1935 39.66 54.1935 37.5832V34.0287C54.1935 30.5894 52.8832 27.2884 50.6323 24.7839C51.0232 24.4152 51.5419 24.1935 52.1003 24.1935C52.5619 24.1935 53.0177 24.3426 53.3855 24.6155C56.3148 26.7774 58.0645 30.2197 58.0645 33.8216V35.8558Z" fill="#00631C"/>
<path d="M19.3549 44.5715H21.2903V54.249H19.3549V44.5715Z" fill="#00631C"/>
<path d="M27.0968 44.5715H29.0323V54.249H27.0968V44.5715Z" fill="#00631C"/>
<path d="M34.8387 44.5715H36.7742V54.249H34.8387V44.5715Z" fill="#00631C"/>
<path d="M42.5806 46.5067H44.5161V52.3132H42.5806V46.5067Z" fill="#00631C"/>
<path d="M50.3226 47.4746H52.2581V51.3456H50.3226V47.4746Z" fill="#00631C"/>
</svg>
