<svg width="43" height="60" viewBox="0 0 43 60" fill="none" xmlns="http://www.w3.org/2000/svg">
<path d="M40.5003 53.0929V59C40.5003 59.5522 40.0525 60 39.5003 60C38.948 60 38.5003 59.5522 38.5003 59V53.0929C38.5003 50.3241 37.1284 47.7443 34.8306 46.192C34.373 45.8829 34.2526 45.2612 34.5619 44.8036C34.8711 44.3459 35.4926 44.2255 35.9503 44.5349C38.7994 46.4595 40.5003 49.6588 40.5003 53.0929ZM42.6253 24.5V37.125C42.6253 37.6772 42.1775 38.125 41.6253 38.125H39.5003C36.8909 38.125 34.4369 36.9728 32.7675 34.964C32.4146 34.5392 32.4729 33.9088 32.8975 33.5556C33.3221 33.2029 33.9526 33.2609 34.3059 33.6856C35.5939 35.236 37.4873 36.125 39.5003 36.125H40.6253V24.5C40.6253 22.1546 38.9603 20.1911 36.7503 19.7286V23.2916C36.7503 23.8439 36.3025 24.2916 35.7503 24.2916C35.198 24.2916 34.7503 23.8439 34.7503 23.2916V13.5C34.7503 7.15887 29.5914 2 23.2503 2H17.2508C10.9094 2 5.75025 7.159 5.75025 13.5005V23.2916C5.75025 24.102 6.2065 24.8072 6.87525 25.1656V19.25C6.87525 18.6978 7.323 18.25 7.87525 18.25C8.4275 18.25 8.87525 18.6978 8.87525 19.25V26.2656C8.87525 32.5379 13.978 37.6406 20.2503 37.6406C26.5225 37.6406 31.6253 32.5379 31.6253 26.2656V20.2789C29.2133 20.1419 27.1203 18.6345 26.3748 15.836C24.2419 17.202 21.9665 18.3275 19.5916 19.19C16.2176 20.4154 12.877 20.9256 12.5058 20.9256C12.015 20.9256 11.5866 20.564 11.5166 20.0641C11.4401 19.5171 11.8214 19.0116 12.3683 18.9351C17.4731 18.2204 22.3179 16.3029 26.5474 13.3089C27.2108 12.8393 28.1304 13.3181 28.1251 14.1315C28.125 14.1562 28.1344 16.6364 30.0156 17.7681C31.2591 18.5163 32.4435 18.2221 32.7446 18.2579C33.1476 18.3054 33.4855 18.5954 33.5909 18.9942C33.6404 19.182 33.6251 18.7412 33.6251 26.3417C33.6251 35.0384 25.1266 41.6444 16.4789 39.0984C16.3836 40.3061 15.9404 41.4422 15.1975 42.3916L20.2501 46.2427L22.9153 44.2113C23.3546 43.8764 23.982 43.9613 24.3168 44.4004C24.6516 44.8396 24.5669 45.467 24.1276 45.8019C20.6875 48.4241 20.8506 48.3095 20.7326 48.3744C20.4924 48.5075 20.1995 48.5399 19.9274 48.4463C19.7065 48.3714 20.1571 48.6867 13.7034 43.7676C13.0693 44.1831 12.3666 44.4755 11.625 44.6336V49.1367C13.2086 49.5756 14.375 51.0289 14.375 52.7503C14.375 54.818 12.6928 56.5003 10.625 56.5003C8.55725 56.5003 6.875 54.818 6.875 52.7503C6.875 51.0289 8.04138 49.5756 9.625 49.1367V44.8025C5.40463 45.1501 2 48.6781 2 53.0931V59C2 59.5522 1.55225 60 1 60C0.44775 60 0 59.5522 0 59V53.0929C0 47.3881 4.61625 42.7715 10.3214 42.7715C12.6358 42.7715 14.5 40.8982 14.5 38.6037V38.3404C10.2905 36.3276 7.29163 32.1768 6.91588 27.3029C5.1025 26.8693 3.75 25.2359 3.75 23.2916V13.5005C3.75025 6.05625 9.80663 0 17.2508 0H23.2503C30.6943 0 36.7503 6.056 36.7503 13.5V17.6985C40.0688 18.1844 42.6253 21.0487 42.6253 24.5ZM10.6253 51C9.66025 51 8.87525 51.785 8.87525 52.75C8.87525 53.715 9.66025 54.5 10.6253 54.5C11.5903 54.5 12.3753 53.715 12.3753 52.75C12.3753 51.785 11.5903 51 10.6253 51ZM30.8753 49.0947C30.8753 43.3825 30.8976 43.6666 30.8224 43.4431C30.697 43.0714 30.3579 42.7938 29.9429 42.7656C28.463 42.6595 27.2866 41.8853 26.6045 40.7651C26.3171 40.2934 25.7019 40.1439 25.2303 40.4311C24.7586 40.7185 24.609 41.3337 24.8963 41.8054C25.7856 43.2656 27.2315 44.2771 28.8753 44.6306V49.0947C26.3879 49.5649 24.5003 51.7531 24.5003 54.375V59C24.5003 59.5522 24.948 60 25.5003 60C26.0525 60 26.5003 59.5522 26.5003 59V54.375C26.5003 52.514 28.0143 51 29.8753 51C31.7363 51 33.2503 52.514 33.2503 54.375V59C33.2503 59.5522 33.698 60 34.2503 60C34.8025 60 35.2503 59.5522 35.2503 59V54.375C35.2503 51.753 33.3626 49.5649 30.8753 49.0947Z" fill="#00631C"/>
</svg>
