<svg width="25" height="22" viewBox="0 0 25 22" fill="none" xmlns="http://www.w3.org/2000/svg">
<path d="M24.4791 8.85705H20.0656L14.4918 0.517819C14.329 0.274034 14.005 0.212812 13.7675 0.379705C13.5305 0.547652 13.4705 0.880886 13.6332 1.12467L18.8015 8.857H6.19847L11.3668 1.12472C11.5295 0.880936 11.4695 0.547652 11.2325 0.379755C10.9965 0.212862 10.672 0.274084 10.5082 0.51787L4.93432 8.85705H0.520849C0.232959 8.85705 0 9.09666 0 9.39278C0 9.6889 0.232959 9.92852 0.520849 9.92852H1.18164L4.36557 20.2212C4.64228 21.1143 5.43978 21.7143 6.35072 21.7143H18.6493C19.5602 21.7143 20.3578 21.1143 20.6344 20.2207L23.8183 9.92852H24.4792C24.767 9.92852 25 9.6889 25 9.39278C25 9.09666 24.767 8.85705 24.4791 8.85705ZM19.6416 19.8958C19.5032 20.3426 19.1045 20.6429 18.6492 20.6429H6.35072C5.8955 20.6429 5.49672 20.3426 5.35839 19.8963L2.27485 9.92847H22.7252L19.6416 19.8958Z" fill="black"/>
</svg>
